<svg width="585" height="767" viewBox="0 0 585 767" fill="none" xmlns="http://www.w3.org/2000/svg">
<defs>
	<clipPath id="circle-clip">
		<!-- Reduce radius to add padding so UI circular masks don't cut artwork -->
		<circle cx="292.5" cy="383.5" r="260" />
	</clipPath>
</defs>
<g clip-path="url(#circle-clip)">
	<!-- scale artwork to 70% around the artwork center to add padding -->
	<g transform="translate(292.5,383.5) scale(0.62) translate(-292.5,-383.5)">
		<path d="M433.344 0C495.942 4.0012e-06 546.687 49.243 546.688 109.987C546.688 170.732 495.942 219.975 433.344 219.975C370.746 219.975 320 170.732 320 109.987C320 49.243 370.746 0 433.344 0Z" fill="#F2D784"/>
		<path d="M309.562 25C403.123 25 478.969 101.34 478.969 195.51C478.969 233.167 466.839 267.973 446.299 296.187H512.75C513.005 296.187 513.255 296.211 513.497 296.257C514.575 296.21 515.66 296.187 516.75 296.187C554.443 296.187 585 324.325 585 359.036C585 393.747 554.443 421.886 516.75 421.886C515.659 421.886 514.575 421.861 513.497 421.814C513.255 421.86 513.005 421.886 512.75 421.886H121C120.763 421.886 120.531 421.864 120.306 421.824C53.5043 419.854 0.000206188 368.788 0 306.079C3.0983e-05 242.121 55.6566 190.272 124.312 190.272C129.698 190.272 135.004 190.592 140.209 191.211C142.475 99.0275 217.43 25 309.562 25Z" fill="#AABCD6"/>
		<path fill-rule="evenodd" clip-rule="evenodd" d="M334.906 429.407C334.906 485.792 302.38 538.375 236.153 555.719L236.164 555.765C180.701 568.019 150.359 585.289 133.672 601.304C117.565 616.761 113.357 631.834 112.108 642.525C112.006 650.57 115.686 658.849 123.859 667.336C132.437 676.242 145.207 684.511 160.664 691.522C191.639 705.573 230.362 713.225 259.083 712.265L259.918 737.251C227.088 738.349 184.56 729.815 150.337 714.29C133.194 706.514 117.379 696.647 105.852 684.678C94.259 672.64 86.2758 657.635 87.1726 640.242L87.2058 640.243C88.8907 624.97 94.9571 603.808 116.361 583.267C137.262 563.208 171.898 544.599 228.919 531.769C283.842 517.773 309.906 475.666 309.906 429.407H334.906Z" fill="#6E6E6E"/>
		<path d="M524.999 497.886C533.283 497.886 539.999 504.602 539.999 512.886V687.886C539.999 690.065 539.533 692.135 538.697 694.004C535.413 706.821 525.885 719.28 511.759 727.273C487.642 740.919 459.265 736.383 448.378 717.142C437.491 697.9 448.215 671.24 472.332 657.594C487.983 648.738 505.426 647.543 518.721 653.052L517.583 560.946C517.538 557.329 514.326 554.574 510.744 555.08L407.159 569.723C404.199 570.141 401.999 572.675 401.999 575.664V702.694C405.227 722.304 393.203 744.757 371.018 757.31C344.035 772.577 312.239 767.419 300 745.789C287.761 724.159 299.713 694.247 326.696 678.979C344.344 668.994 364.052 667.745 378.999 674.129V523.681C381.216 520.051 385.554 517.34 391.049 515.507C393.951 514.539 396.728 513.972 398.792 513.651C399.812 513.493 400.63 513.399 401.164 513.347C401.325 513.331 401.459 513.319 401.564 513.31L401.571 513.351L519.654 497.886H524.999Z" fill="#62A0EA"/>
	</g>
</g>
</svg>
